<svg xmlns="http://www.w3.org/2000/svg" width="1200" height="360" viewBox="0 0 1200 360" font-family="'Segoe UI',Helvetica,Arial,sans-serif">
<defs>
 <linearGradient id="sky" x1="0" y1="0" x2="0.6" y2="1">
   <stop offset="0" stop-color="#15294300"/><stop offset="0" stop-color="#16294a"/>
   <stop offset="0.55" stop-color="#0f1e35"/><stop offset="1" stop-color="#0a1526"/>
 </linearGradient>
 <radialGradient id="glow" cx="26%" cy="42%" r="55%">
   <stop offset="0" stop-color="#2b4d7a" stop-opacity="0.45"/><stop offset="1" stop-color="#2b4d7a" stop-opacity="0"/>
 </radialGradient>
 <clipPath id="r"><rect width="1200" height="360" rx="18"/></clipPath>
 <filter id="soft" x="-30%" y="-30%" width="160%" height="160%"><feGaussianBlur stdDeviation="5"/></filter>
</defs>
<g clip-path="url(#r)">
 <rect width="1200" height="360" fill="url(#sky)"/>
 <rect width="1200" height="360" fill="url(#glow)"/>
<path d="M0,306 Q320,280 640,298 T1200,292 V360 H0 Z" fill="#22406a" opacity="0.5"/>
<path d="M0,322 Q300,300 640,314 T1200,308 V360 H0 Z" fill="#2c5285" opacity="0.45"/>
<circle cx="389" cy="51" r="2.0" fill="#cfe0f2" opacity="0.13"/>
<circle cx="643" cy="124" r="1.3" fill="#cfe0f2" opacity="0.21"/>
<circle cx="45" cy="147" r="1.3" fill="#cfe0f2" opacity="0.14"/>
<circle cx="509" cy="281" r="1.3" fill="#cfe0f2" opacity="0.16"/>
<circle cx="753" cy="322" r="1.9" fill="#cfe0f2" opacity="0.19"/>
<circle cx="1172" cy="16" r="2.2" fill="#cfe0f2" opacity="0.17"/>
<circle cx="173" cy="40" r="1.6" fill="#cfe0f2" opacity="0.27"/>
<circle cx="217" cy="198" r="2.0" fill="#cfe0f2" opacity="0.19"/>
<circle cx="657" cy="21" r="1.3" fill="#cfe0f2" opacity="0.16"/>
<circle cx="816" cy="145" r="1.6" fill="#cfe0f2" opacity="0.23"/>
<circle cx="544" cy="102" r="2.2" fill="#cfe0f2" opacity="0.25"/>
<circle cx="293" cy="195" r="1.8" fill="#cfe0f2" opacity="0.28"/>
<circle cx="875" cy="98" r="2.4" fill="#cfe0f2" opacity="0.14"/>
<circle cx="502" cy="257" r="1.4" fill="#cfe0f2" opacity="0.21"/>
<circle cx="47" cy="227" r="2.1" fill="#cfe0f2" opacity="0.22"/>
<circle cx="1051" cy="107" r="2.0" fill="#cfe0f2" opacity="0.23"/>
<circle cx="696" cy="155" r="2.2" fill="#cfe0f2" opacity="0.29"/>
<circle cx="569" cy="226" r="1.3" fill="#cfe0f2" opacity="0.25"/>
<circle cx="777" cy="338" r="2.2" fill="#cfe0f2" opacity="0.17"/>
<circle cx="463" cy="227" r="1.2" fill="#cfe0f2" opacity="0.20"/>
<circle cx="202" cy="40" r="1.3" fill="#cfe0f2" opacity="0.26"/>
<circle cx="155" cy="84" r="1.7" fill="#cfe0f2" opacity="0.28"/>
<circle cx="97" cy="153" r="1.9" fill="#cfe0f2" opacity="0.28"/>
<circle cx="983" cy="294" r="1.5" fill="#cfe0f2" opacity="0.19"/>
<circle cx="431" cy="301" r="2.3" fill="#cfe0f2" opacity="0.15"/>
<circle cx="211" cy="79" r="1.5" fill="#cfe0f2" opacity="0.21"/>
<line x1="536" y1="198" x2="676" y2="198" stroke="#0a1526" stroke-width="12" stroke-linecap="round"/>
<line x1="536" y1="198" x2="676" y2="198" stroke="#eef5fc" stroke-width="8" stroke-linecap="round"/>
<line x1="676" y1="198" x2="844" y2="198" stroke="#0a1526" stroke-width="10" stroke-linecap="round"/>
<line x1="676" y1="198" x2="844" y2="198" stroke="#3a5a7d" stroke-width="6" stroke-linecap="round"/>
<line x1="844" y1="198" x2="844" y2="113" stroke="#0a1526" stroke-width="11" stroke-linecap="round"/>
<line x1="844" y1="198" x2="844" y2="113" stroke="#7fd0ff" stroke-width="7" stroke-linecap="round"/>
<line x1="844" y1="198" x2="1020" y2="198" stroke="#0a1526" stroke-width="12" stroke-linecap="round"/>
<line x1="844" y1="198" x2="1020" y2="198" stroke="#eef5fc" stroke-width="8" stroke-linecap="round"/>
<line x1="1020" y1="198" x2="1160" y2="271" stroke="#0a1526" stroke-width="12" stroke-linecap="round"/>
<line x1="1020" y1="198" x2="1160" y2="271" stroke="#eef5fc" stroke-width="8" stroke-linecap="round"/>
<line x1="541" y1="115" x2="676" y2="198" stroke="#0a1526" stroke-width="10" stroke-linecap="round"/>
<line x1="541" y1="115" x2="676" y2="198" stroke="#3a5a7d" stroke-width="6" stroke-linecap="round"/>
<line x1="1020" y1="198" x2="1160" y2="115" stroke="#0a1526" stroke-width="11" stroke-linecap="round"/>
<line x1="1020" y1="198" x2="1160" y2="115" stroke="#7fd0ff" stroke-width="7" stroke-linecap="round"/>
<line x1="844" y1="300" x2="844" y2="198" stroke="#0a1526" stroke-width="10" stroke-linecap="round"/>
<line x1="844" y1="300" x2="844" y2="198" stroke="#3a5a7d" stroke-width="6" stroke-linecap="round"/>
<circle cx="536" cy="198" r="13" fill="#0a1526"/>
<circle cx="536" cy="198" r="10" fill="#ff6b6b"/>
<circle cx="533" cy="195" r="3" fill="#ffffff" opacity="0.5"/>
<circle cx="676" cy="198" r="13" fill="#0a1526"/>
<circle cx="676" cy="198" r="10" fill="#dbe7f4"/>
<circle cx="673" cy="195" r="3" fill="#ffffff" opacity="0.5"/>
<circle cx="844" cy="198" r="13" fill="#0a1526"/>
<circle cx="844" cy="198" r="10" fill="#dbe7f4"/>
<circle cx="841" cy="195" r="3" fill="#ffffff" opacity="0.5"/>
<circle cx="1020" cy="198" r="13" fill="#0a1526"/>
<circle cx="1020" cy="198" r="10" fill="#dbe7f4"/>
<circle cx="1017" cy="195" r="3" fill="#ffffff" opacity="0.5"/>
<circle cx="844" cy="113" r="13" fill="#0a1526"/>
<circle cx="844" cy="113" r="10" fill="#ff6b6b"/>
<circle cx="841" cy="110" r="3" fill="#ffffff" opacity="0.5"/>
<circle cx="1160" cy="271" r="13" fill="#0a1526"/>
<circle cx="1160" cy="271" r="10" fill="#ff6b6b"/>
<circle cx="1157" cy="268" r="3" fill="#ffffff" opacity="0.5"/>
<circle cx="541" cy="115" r="13" fill="#0a1526"/>
<circle cx="541" cy="115" r="10" fill="#ffc63a"/>
<circle cx="538" cy="112" r="3" fill="#ffffff" opacity="0.5"/>
<circle cx="1160" cy="115" r="13" fill="#0a1526"/>
<circle cx="1160" cy="115" r="10" fill="#ffc63a"/>
<circle cx="1157" cy="112" r="3" fill="#ffffff" opacity="0.5"/>
<circle cx="844" cy="300" r="13" fill="#0a1526"/>
<circle cx="844" cy="300" r="10" fill="#35c46a"/>
<circle cx="841" cy="297" r="3" fill="#ffffff" opacity="0.5"/>
<circle cx="707" cy="95" r="2.4" fill="#f2f8ff" opacity="0.67"/>
<circle cx="443" cy="204" r="4.1" fill="#f2f8ff" opacity="0.78"/>
<circle cx="619" cy="222" r="3.6" fill="#f2f8ff" opacity="0.52"/>
<circle cx="1079" cy="281" r="4.0" fill="#f2f8ff" opacity="0.82"/>
<circle cx="471" cy="144" r="2.6" fill="#f2f8ff" opacity="0.75"/>
<circle cx="75" cy="24" r="2.8" fill="#f2f8ff" opacity="0.56"/>
<circle cx="408" cy="19" r="2.4" fill="#f2f8ff" opacity="0.56"/>
<circle cx="122" cy="131" r="2.4" fill="#f2f8ff" opacity="0.85"/>
<circle cx="737" cy="53" r="2.9" fill="#f2f8ff" opacity="0.64"/>
<circle cx="437" cy="44" r="3.9" fill="#f2f8ff" opacity="0.90"/>
<circle cx="559" cy="174" r="2.6" fill="#f2f8ff" opacity="0.54"/>
<circle cx="411" cy="95" r="3.9" fill="#f2f8ff" opacity="0.56"/>
<circle cx="28" cy="342" r="3.4" fill="#f2f8ff" opacity="0.56"/>
<circle cx="652" cy="10" r="3.4" fill="#f2f8ff" opacity="0.89"/>
<circle cx="1036" cy="251" r="2.9" fill="#f2f8ff" opacity="0.65"/>
<circle cx="200" cy="278" r="3.4" fill="#f2f8ff" opacity="0.81"/>
<circle cx="396" cy="80" r="3.9" fill="#f2f8ff" opacity="0.89"/>
<circle cx="1023" cy="290" r="3.9" fill="#f2f8ff" opacity="0.80"/>
<circle cx="272" cy="186" r="3.0" fill="#f2f8ff" opacity="0.51"/>
<circle cx="34" cy="101" r="2.9" fill="#f2f8ff" opacity="0.78"/>
<circle cx="1148" cy="161" r="4.1" fill="#f2f8ff" opacity="0.90"/>
<circle cx="1146" cy="131" r="2.8" fill="#f2f8ff" opacity="0.59"/>

 <text x="70" y="96" fill="#7fd4ff" font-size="16" font-weight="700" letter-spacing="3">BME · SZOFTVERPROJEKT · JAVA</text>
 <text x="66" y="176" fill="#ffffff" font-size="62" font-weight="800" letter-spacing="-1">Hókotrók</text>
 <text x="66" y="238" fill="#7fd0ff" font-size="62" font-weight="800" letter-spacing="-1">Purgatóriuma</text>
 <text x="70" y="278" fill="#bcd4ea" font-size="19" font-weight="500">Zúzmaravárosi hókotró-szimulátor &amp; gazdasági játék</text>
 <g font-size="14" font-weight="700">
   <rect x="70"  y="300" width="132" height="32" rx="8" fill="#ffffff" fill-opacity="0.07" stroke="#7fd4ff" stroke-opacity="0.4"/>
   <text x="136" y="321" fill="#cfeafc" text-anchor="middle">Gráf úthálózat</text>
   <rect x="214" y="300" width="150" height="32" rx="8" fill="#ffffff" fill-opacity="0.07" stroke="#35c46a" stroke-opacity="0.5"/>
   <text x="289" y="321" fill="#bff0d1" text-anchor="middle">Tick-szimuláció</text>
   <rect x="376" y="300" width="128" height="32" rx="8" fill="#ffffff" fill-opacity="0.07" stroke="#ffc63a" stroke-opacity="0.5"/>
   <text x="440" y="321" fill="#ffe6ad" text-anchor="middle">Swing + CLI</text>
 </g>
</g></svg>